# xmcd CD database file
#
# Track frame offsets:
#	150
#	26400
#	47775
#
# Disc length: 984 seconds
#
# Revision: 0
# Processed by: cddbd v1.5.1PL0 Copyright (c) Steve Scherf et al.
# Submitted via: CDex 1.51
#
DISCID=1c03d603
DTITLE=藤木直人 - 虹 〜waiting for the rainbow〜
DYEAR=1999
DGENRE=J-Pop
TTITLE0=虹 〜waiting for the rainbow〜
TTITLE1=シナモン
TTITLE2=虹 〜waiting for the rainbow〜 instrumental
EXTD=YEAR: 1999
EXTT0=
EXTT1=
EXTT2=
PLAYORDER=
